PathFileType	4	(X/Y/Z)	pose2sim_0-814.trc
DataRate	CameraRate	NumFrames	NumMarkers	Units	OrigDataRate	OrigDataStartFrame	OrigNumFrames
50	50	4	22	m	50	0	815
Frame#	Time	Hip			RHip			RKnee			RAnkle			RBigToe			RSmallToe			RHeel			LHip			LKnee			LAnkle			LBigToe			LSmallToe			LHeel			Neck			Head			Nose			RShoulder			RElbow			RWrist			LShoulder			LElbow			LWrist			
		X1	Y1	Z1	X2	Y2	Z2	X3	Y3	Z3	X4	Y4	Z4	X5	Y5	Z5	X6	Y6	Z6	X7	Y7	Z7	X8	Y8	Z8	X9	Y9	Z9	X10	Y10	Z10	X11	Y11	Z11	X12	Y12	Z12	X13	Y13	Z13	X14	Y14	Z14	X15	Y15	Z15	X16	Y16	Z16	X17	Y17	Z17	X18	Y18	Z18	X19	Y19	Z19	X20	Y20	Z20	X21	Y21	Z21	X22	Y22	Z22	
0	0.0	0.14424825229740226	0.9539828695783171	-0.09324159498203692	0.02574932177804878	0.9501864807034117	-0.09823997888932728	-0.007727597408567783	0.5204786137995283	-0.11598475764151485	-0.04257885085612532	0.0854292232478517	-0.1655900614908108	-0.06926000386339808	0.04100618255921659	0.02675120902433293	-0.11668651885367314	0.0405812349935135	-0.029728075556893614	-0.03471189259913692	0.04029902476461307	-0.2042598976293987	0.26476599003796586	0.9426473741826702	-0.08689373882386307	0.29403553742462263	0.5161602184457953	-0.10382002756561509	0.3229175655597984	0.08723268045812131	-0.14836535670716686	0.35273109326304725	0.04015180276302674	0.047801666055535465	0.3960512029936103	0.03974705247776033	-0.019857957832814025	0.3074338311550475	0.0438362285319755	-0.18089469158576382	0.15663427490190282	1.5676631279013815	-0.03248815279325809	0.1576339730739659	1.8064109863871713	0.014662533780857459	0.1618955888345937	1.6747424006889142	0.10659187606330953	-0.04086271865966006	1.4549079146254327	-0.061341758623114626	-0.10687643741654479	1.1563718314221716	-0.11327761062271355	-0.15678441548710778	0.8861458595693138	-0.08698739975188184	0.3505566250310657	1.4472720158460999	-0.07211719794175578	0.40743963887542334	1.1467036881128418	-0.098287161087291	0.44334310377208114	0.8751660625542488	-0.08472641926228505
1	0.02	0.14456472560670047	0.9515184840433392	-0.09078100501281776	0.026803028082373177	0.9473105532851415	-0.09530094041770361	-0.007302833158281529	0.519001697209409	-0.11292501952957926	-0.044811926193341414	0.09122808918803489	-0.16261197562043686	-0.07420132464135674	0.04367771910995196	0.0272761237420687	-0.12466812730833257	0.04266445468061267	-0.04576638171317624	-0.03303975148823188	0.05060968712162104	-0.20382882577059291	0.2671324427171829	0.9440742348855962	-0.0864718689390179	0.2977290119069011	0.5149147752751808	-0.11008005253116872	0.3279318292831269	0.0923492208227017	-0.13812354068087115	0.3627753187374466	0.04562751894718125	0.027817670052492235	0.4022663661184877	0.04864410313192849	-0.02379721124717776	0.3168295154378932	0.048236234760887724	-0.17531636672034692	0.15561160365696827	1.5619220811718184	-0.03156097076845791	0.15697549972602537	1.8060049713212742	0.020539206882993447	0.1539113362059077	1.674889547790489	0.12600425445435434	-0.03817247782941656	1.4556902944316736	-0.0659424420107114	-0.10688142244340214	1.15978571776231	-0.10954643678665486	-0.15922705035985668	0.8952781395242895	-0.09275999930554486	0.34439413431357435	1.4484561664351503	-0.06318874571488112	0.405801283326069	1.1553834235816454	-0.09362144508051468	0.4432962199767596	0.8859118354681557	-0.08471784501405767
2	0.04	0.1448186243670833	0.9524876670269391	-0.09828602361740348	0.026218952817063188	0.9454020912150614	-0.09392414563142892	-0.0076473836518399525	0.515151948693284	-0.11795905486915345	-0.04244302135241972	0.08961697862193725	-0.15976359783740612	-0.07344580613566067	0.04394447921085704	0.025259932255494125	-0.12318585296427814	0.044156117547984194	-0.04230510169228016	-0.03339766969483541	0.050646896528048733	-0.2024782817452532	0.2636861384440017	0.939435646136037	-0.0873702916312239	0.29689459797060236	0.5150343780873713	-0.1072583825295984	0.32539071785198165	0.09234161383101336	-0.13847799707977893	0.36248095309256	0.04586388213583186	0.03173158303638956	0.40291118464377224	0.04925683877185509	-0.026604728691054694	0.31665238719911803	0.04726914380291626	-0.18081181765566814	0.15716616835858974	1.5641287398102701	-0.0285395002199101	0.1557895744681283	1.8069611031208268	0.016678531313979394	0.1548994410871025	1.6766429430727559	0.12778776766367347	-0.03693766242350166	1.4585677685756306	-0.06595182479229236	-0.1083038438199329	1.160679868794583	-0.10968323900135286	-0.15748677467264063	0.8961473734369698	-0.09238016107589896	0.34482314675763875	1.4501865055449141	-0.05904764131590898	0.40436660711135985	1.1536372406552864	-0.09915784852065801	0.4414109399259107	0.88674459899806	-0.08167110002408605
3	0.06	0.14327203295626909	0.9525212103691663	-0.0951734232173159	0.02593514895325172	0.9467043264371651	-0.09280896337506425	-0.006436164197801161	0.5187875887101175	-0.11360332139532818	-0.042498566887914827	0.08873779971437366	-0.15978749472234557	-0.07324116629222065	0.04302691715585395	0.029384893282355676	-0.12337000639880306	0.04052405353567468	-0.042266333032890416	-0.0333573509594237	0.051086518027073244	-0.20127047036168447	0.263580109167499	0.9409001989339247	-0.08879976558848338	0.29538630546334044	0.5132116230256949	-0.1059848888078286	0.32543971129890953	0.0929076722950152	-0.1402916289206112	0.36627245572135336	0.04434361786691174	0.02573335850585208	0.40398311355532657	0.048824577999371864	-0.02954515715115414	0.3173618239978294	0.04758985274384078	-0.17556686237241423	0.1557910162053837	1.563676699066089	-0.03199205887306463	0.15714763293924885	1.8066754876605078	0.0203272030812125	0.15109698054924403	1.6746475846120839	0.12469141954017163	-0.03575797723535673	1.4563011690108236	-0.06279394031001274	-0.10715511553453	1.1607978310395841	-0.10649384361360907	-0.1561377031199276	0.8975512528137141	-0.09655890811956601	0.3449407593797458	1.4493868940233186	-0.05967647620072241	0.4059653970151967	1.156480331579717	-0.0957843545247004	0.44176466794989483	0.8868322760220627	-0.08112396782076108
